<mxfile host="app.diagrams.net" modified="2024-02-14T12:55:42.800Z" agent="Mozilla/5.0 (Windows NT 10.0; Win64; x64; rv:122.0) Gecko/20100101 Firefox/122.0" etag="cMhlaG_Luqz_1ljEpvPs" version="23.1.4" type="device">
  <diagram name="Page-1" id="_4Gq72M2pbiED9Mkj0L2">
    <mxGraphModel dx="1728" dy="622" grid="1" gridSize="10" guides="1" tooltips="1" connect="1" arrows="1" fold="1" page="1" pageScale="1" pageWidth="827" pageHeight="1169" math="0" shadow="0">
      <root>
        <mxCell id="0" />
        <mxCell id="1" parent="0" />
        <mxCell id="0fSBfRaaXqFe0GF9OnEz-3" style="edgeStyle=orthogonalEdgeStyle;rounded=0;orthogonalLoop=1;jettySize=auto;html=1;exitX=1;exitY=0.5;exitDx=0;exitDy=0;entryX=0;entryY=0.5;entryDx=0;entryDy=0;strokeWidth=3;" edge="1" parent="1" source="0fSBfRaaXqFe0GF9OnEz-1" target="0fSBfRaaXqFe0GF9OnEz-2">
          <mxGeometry relative="1" as="geometry" />
        </mxCell>
        <mxCell id="0fSBfRaaXqFe0GF9OnEz-4" value="&lt;div&gt;Connect via ssh&lt;br&gt;&lt;/div&gt;&lt;div&gt;&lt;br&gt;&lt;/div&gt;&lt;div&gt;Push data&lt;br&gt;&lt;/div&gt;" style="edgeLabel;html=1;align=center;verticalAlign=middle;resizable=0;points=[];labelBackgroundColor=none;" vertex="1" connectable="0" parent="0fSBfRaaXqFe0GF9OnEz-3">
          <mxGeometry x="-0.105" y="1" relative="1" as="geometry">
            <mxPoint as="offset" />
          </mxGeometry>
        </mxCell>
        <mxCell id="0fSBfRaaXqFe0GF9OnEz-1" value="Main machine" style="rounded=1;whiteSpace=wrap;html=1;strokeWidth=2;" vertex="1" parent="1">
          <mxGeometry x="80" y="200" width="120" height="60" as="geometry" />
        </mxCell>
        <mxCell id="0fSBfRaaXqFe0GF9OnEz-2" value="&lt;div&gt;Backup server&lt;/div&gt;" style="rounded=1;whiteSpace=wrap;html=1;strokeWidth=2;" vertex="1" parent="1">
          <mxGeometry x="400" y="200" width="120" height="60" as="geometry" />
        </mxCell>
      </root>
    </mxGraphModel>
  </diagram>
</mxfile>
